<?xml version="1.0" encoding="UTF-8" standalone="no"?>
<!DOCTYPE svg PUBLIC "-//W3C//DTD SVG 1.1//EN"
 "http://www.w3.org/Graphics/SVG/1.1/DTD/svg11.dtd">
<!-- Generated by graphviz version 2.44.0 (20200408.0750)
 -->
<!-- Title: dependency&#45;cruiser output Pages: 1 -->
<svg width="432pt" height="173pt"
 viewBox="0.00 0.00 431.53 173.00" xmlns="http://www.w3.org/2000/svg" xmlns:xlink="http://www.w3.org/1999/xlink">
<g id="graph0" class="graph" transform="scale(1 1) rotate(0) translate(4 169)">
<title>dependency&#45;cruiser output</title>
<polygon fill="white" stroke="transparent" points="-4,4 -4,-169 427.53,-169 427.53,4 -4,4"/>
<g id="clust1" class="cluster">
<title>cluster_client</title>
<path fill="#ffffff" stroke="black" stroke-width="2" d="M20,-8C20,-8 403.53,-8 403.53,-8 409.53,-8 415.53,-14 415.53,-20 415.53,-20 415.53,-145 415.53,-145 415.53,-151 409.53,-157 403.53,-157 403.53,-157 20,-157 20,-157 14,-157 8,-151 8,-145 8,-145 8,-20 8,-20 8,-14 14,-8 20,-8"/>
<text text-anchor="middle" x="211.77" y="-144.9" font-family="Helvetica,sans-Serif" font-weight="bold" font-size="9.00">client</text>
</g>
<g id="clust2" class="cluster">
<title>cluster_client/src</title>
<path fill="#ffffff" stroke="black" stroke-width="2" d="M28,-42C28,-42 395.53,-42 395.53,-42 401.53,-42 407.53,-48 407.53,-54 407.53,-54 407.53,-118 407.53,-118 407.53,-124 401.53,-130 395.53,-130 395.53,-130 28,-130 28,-130 22,-130 16,-124 16,-118 16,-118 16,-54 16,-54 16,-48 22,-42 28,-42"/>
<text text-anchor="middle" x="211.77" y="-117.9" font-family="Helvetica,sans-Serif" font-weight="bold" font-size="9.00">src</text>
</g>
<g id="clust3" class="cluster">
<title>cluster_client/src/handlers</title>
<path fill="#ffffff" stroke="black" stroke-width="2" d="M264.01,-50C264.01,-50 387.53,-50 387.53,-50 393.53,-50 399.53,-56 399.53,-62 399.53,-62 399.53,-91 399.53,-91 399.53,-97 393.53,-103 387.53,-103 387.53,-103 264.01,-103 264.01,-103 258.01,-103 252.01,-97 252.01,-91 252.01,-91 252.01,-62 252.01,-62 252.01,-56 258.01,-50 264.01,-50"/>
<text text-anchor="middle" x="325.77" y="-90.9" font-family="Helvetica,sans-Serif" font-weight="bold" font-size="9.00">handlers</text>
</g>
<g id="clust4" class="cluster">
<title>cluster_client/src/init</title>
<path fill="#ffffff" stroke="black" stroke-width="2" d="M36,-50C36,-50 82,-50 82,-50 88,-50 94,-56 94,-62 94,-62 94,-91 94,-91 94,-97 88,-103 82,-103 82,-103 36,-103 36,-103 30,-103 24,-97 24,-91 24,-91 24,-62 24,-62 24,-56 30,-50 36,-50"/>
<text text-anchor="middle" x="59" y="-90.9" font-family="Helvetica,sans-Serif" font-weight="bold" font-size="9.00">init</text>
</g>
<g id="clust5" class="cluster">
<title>cluster_client/src/listeners</title>
<path fill="#ffffff" stroke="black" stroke-width="2" d="M114,-50C114,-50 232.01,-50 232.01,-50 238.01,-50 244.01,-56 244.01,-62 244.01,-62 244.01,-91 244.01,-91 244.01,-97 238.01,-103 232.01,-103 232.01,-103 114,-103 114,-103 108,-103 102,-97 102,-91 102,-91 102,-62 102,-62 102,-56 108,-50 114,-50"/>
<text text-anchor="middle" x="173.01" y="-90.9" font-family="Helvetica,sans-Serif" font-weight="bold" font-size="9.00">listeners</text>
</g>
<!-- client/data.js -->
<g id="node1" class="node">
<title>client/data.js</title>
<g id="a_node1"><a xlink:href="../client/data.js" xlink:title="data.js">
<path fill="#ccffcc" stroke="black" d="M79.8,-34.3C79.8,-34.3 38.2,-34.3 38.2,-34.3 35.1,-34.3 32,-31.2 32,-28.1 32,-28.1 32,-21.9 32,-21.9 32,-18.8 35.1,-15.7 38.2,-15.7 38.2,-15.7 79.8,-15.7 79.8,-15.7 82.9,-15.7 86,-18.8 86,-21.9 86,-21.9 86,-28.1 86,-28.1 86,-31.2 82.9,-34.3 79.8,-34.3"/>
<text text-anchor="middle" x="59" y="-22.3" font-family="Helvetica,sans-Serif" font-size="9.00">data.js</text>
</a>
</g>
</g>
<!-- client/src/handlers/add&#45;delete&#45;check&#45;handlers.js -->
<g id="node2" class="node">
<title>client/src/handlers/add&#45;delete&#45;check&#45;handlers.js</title>
<g id="a_node2"><a xlink:href="../client/src/handlers/add-delete-check-handlers.js" xlink:title="add&#45;delete&#45;check&#45;handlers.js">
<path fill="#ffffcc" stroke="black" d="M385.1,-76.3C385.1,-76.3 266.45,-76.3 266.45,-76.3 263.35,-76.3 260.25,-73.2 260.25,-70.1 260.25,-70.1 260.25,-63.9 260.25,-63.9 260.25,-60.8 263.35,-57.7 266.45,-57.7 266.45,-57.7 385.1,-57.7 385.1,-57.7 388.2,-57.7 391.3,-60.8 391.3,-63.9 391.3,-63.9 391.3,-70.1 391.3,-70.1 391.3,-73.2 388.2,-76.3 385.1,-76.3"/>
<text text-anchor="middle" x="325.77" y="-64.3" font-family="Helvetica,sans-Serif" font-size="9.00">add&#45;delete&#45;check&#45;handlers.js</text>
</a>
</g>
</g>
<!-- client/src/init/index.js -->
<g id="node3" class="node">
<title>client/src/init/index.js</title>
<g id="a_node3"><a xlink:href="../client/src/init/index.js" xlink:title="index.js">
<path fill="#ffffcc" stroke="black" d="M79.8,-76.3C79.8,-76.3 38.2,-76.3 38.2,-76.3 35.1,-76.3 32,-73.2 32,-70.1 32,-70.1 32,-63.9 32,-63.9 32,-60.8 35.1,-57.7 38.2,-57.7 38.2,-57.7 79.8,-57.7 79.8,-57.7 82.9,-57.7 86,-60.8 86,-63.9 86,-63.9 86,-70.1 86,-70.1 86,-73.2 82.9,-76.3 79.8,-76.3"/>
<text text-anchor="middle" x="59" y="-64.3" font-family="Helvetica,sans-Serif" font-size="9.00">index.js</text>
</a>
</g>
</g>
<!-- client/src/listeners/add&#45;delete&#45;check&#45;listener.js -->
<g id="node4" class="node">
<title>client/src/listeners/add&#45;delete&#45;check&#45;listener.js</title>
<g id="a_node4"><a xlink:href="../client/src/listeners/add-delete-check-listener.js" xlink:title="add&#45;delete&#45;check&#45;listener.js">
<path fill="#ffffcc" stroke="black" d="M229.82,-76.3C229.82,-76.3 116.19,-76.3 116.19,-76.3 113.09,-76.3 109.99,-73.2 109.99,-70.1 109.99,-70.1 109.99,-63.9 109.99,-63.9 109.99,-60.8 113.09,-57.7 116.19,-57.7 116.19,-57.7 229.82,-57.7 229.82,-57.7 232.92,-57.7 236.02,-60.8 236.02,-63.9 236.02,-63.9 236.02,-70.1 236.02,-70.1 236.02,-73.2 232.92,-76.3 229.82,-76.3"/>
<text text-anchor="middle" x="173.01" y="-64.3" font-family="Helvetica,sans-Serif" font-size="9.00">add&#45;delete&#45;check&#45;listener.js</text>
</a>
</g>
</g>
<!-- client/src/init/index.js&#45;&gt;client/src/listeners/add&#45;delete&#45;check&#45;listener.js -->
<g id="edge1" class="edge">
<title>client/src/init/index.js&#45;&gt;client/src/listeners/add&#45;delete&#45;check&#45;listener.js</title>
<path fill="none" stroke="#000000" stroke-width="2" stroke-opacity="0.200000" d="M86.26,-67C91.6,-67 97.44,-67 103.48,-67"/>
<polygon fill="#000000" fill-opacity="0.200000" stroke="#000000" stroke-width="2" stroke-opacity="0.200000" points="103.59,-69.1 109.59,-67 103.59,-64.9 103.59,-69.1"/>
</g>
<!-- client/src/listeners/add&#45;delete&#45;check&#45;listener.js&#45;&gt;client/src/handlers/add&#45;delete&#45;check&#45;handlers.js -->
<g id="edge2" class="edge">
<title>client/src/listeners/add&#45;delete&#45;check&#45;listener.js&#45;&gt;client/src/handlers/add&#45;delete&#45;check&#45;handlers.js</title>
<path fill="none" stroke="#000000" stroke-width="2" stroke-opacity="0.200000" d="M236.2,-67C241.92,-67 247.74,-67 253.53,-67"/>
<polygon fill="#000000" fill-opacity="0.200000" stroke="#000000" stroke-width="2" stroke-opacity="0.200000" points="253.8,-69.1 259.8,-67 253.8,-64.9 253.8,-69.1"/>
</g>
</g>
</svg>
