<?xml version="1.0" encoding="UTF-8" standalone="no"?>
<!DOCTYPE svg PUBLIC "-//W3C//DTD SVG 1.1//EN"
 "http://www.w3.org/Graphics/SVG/1.1/DTD/svg11.dtd">
<!-- Generated by graphviz version 2.44.0 (20200408.0750)
 -->
<!-- Title: dependency&#45;cruiser output Pages: 1 -->
<svg width="283pt" height="173pt"
 viewBox="0.00 0.00 283.01 173.00" xmlns="http://www.w3.org/2000/svg" xmlns:xlink="http://www.w3.org/1999/xlink">
<g id="graph0" class="graph" transform="scale(1 1) rotate(0) translate(4 169)">
<title>dependency&#45;cruiser output</title>
<polygon fill="white" stroke="transparent" points="-4,4 -4,-169 279.01,-169 279.01,4 -4,4"/>
<g id="clust1" class="cluster">
<title>cluster_client</title>
<path fill="#ffffff" stroke="black" stroke-width="2" d="M20,-8C20,-8 255.01,-8 255.01,-8 261.01,-8 267.01,-14 267.01,-20 267.01,-20 267.01,-145 267.01,-145 267.01,-151 261.01,-157 255.01,-157 255.01,-157 20,-157 20,-157 14,-157 8,-151 8,-145 8,-145 8,-20 8,-20 8,-14 14,-8 20,-8"/>
<text text-anchor="middle" x="137.5" y="-144.9" font-family="Helvetica,sans-Serif" font-weight="bold" font-size="9.00">client</text>
</g>
<g id="clust2" class="cluster">
<title>cluster_client/src</title>
<path fill="#ffffff" stroke="black" stroke-width="2" d="M28,-42C28,-42 247.01,-42 247.01,-42 253.01,-42 259.01,-48 259.01,-54 259.01,-54 259.01,-118 259.01,-118 259.01,-124 253.01,-130 247.01,-130 247.01,-130 28,-130 28,-130 22,-130 16,-124 16,-118 16,-118 16,-54 16,-54 16,-48 22,-42 28,-42"/>
<text text-anchor="middle" x="137.5" y="-117.9" font-family="Helvetica,sans-Serif" font-weight="bold" font-size="9.00">src</text>
</g>
<g id="clust3" class="cluster">
<title>cluster_client/src/handlers</title>
<path fill="#ffffff" stroke="black" stroke-width="2" d="M192,-50C192,-50 239.01,-50 239.01,-50 245.01,-50 251.01,-56 251.01,-62 251.01,-62 251.01,-91 251.01,-91 251.01,-97 245.01,-103 239.01,-103 239.01,-103 192,-103 192,-103 186,-103 180,-97 180,-91 180,-91 180,-62 180,-62 180,-56 186,-50 192,-50"/>
<text text-anchor="middle" x="215.5" y="-90.9" font-family="Helvetica,sans-Serif" font-weight="bold" font-size="9.00">handlers</text>
</g>
<g id="clust4" class="cluster">
<title>cluster_client/src/init</title>
<path fill="#ffffff" stroke="black" stroke-width="2" d="M36,-50C36,-50 82,-50 82,-50 88,-50 94,-56 94,-62 94,-62 94,-91 94,-91 94,-97 88,-103 82,-103 82,-103 36,-103 36,-103 30,-103 24,-97 24,-91 24,-91 24,-62 24,-62 24,-56 30,-50 36,-50"/>
<text text-anchor="middle" x="59" y="-90.9" font-family="Helvetica,sans-Serif" font-weight="bold" font-size="9.00">init</text>
</g>
<g id="clust5" class="cluster">
<title>cluster_client/src/listeners</title>
<path fill="#ffffff" stroke="black" stroke-width="2" d="M114,-50C114,-50 160,-50 160,-50 166,-50 172,-56 172,-62 172,-62 172,-91 172,-91 172,-97 166,-103 160,-103 160,-103 114,-103 114,-103 108,-103 102,-97 102,-91 102,-91 102,-62 102,-62 102,-56 108,-50 114,-50"/>
<text text-anchor="middle" x="137" y="-90.9" font-family="Helvetica,sans-Serif" font-weight="bold" font-size="9.00">listeners</text>
</g>
<!-- client/data.js -->
<g id="node1" class="node">
<title>client/data.js</title>
<g id="a_node1"><a xlink:href="../client/data.js" xlink:title="data.js">
<path fill="#ccffcc" stroke="black" d="M79.8,-34.3C79.8,-34.3 38.2,-34.3 38.2,-34.3 35.1,-34.3 32,-31.2 32,-28.1 32,-28.1 32,-21.9 32,-21.9 32,-18.8 35.1,-15.7 38.2,-15.7 38.2,-15.7 79.8,-15.7 79.8,-15.7 82.9,-15.7 86,-18.8 86,-21.9 86,-21.9 86,-28.1 86,-28.1 86,-31.2 82.9,-34.3 79.8,-34.3"/>
<text text-anchor="middle" x="59" y="-22.3" font-family="Helvetica,sans-Serif" font-size="9.00">data.js</text>
</a>
</g>
</g>
<!-- client/src/handlers/handler.js -->
<g id="node2" class="node">
<title>client/src/handlers/handler.js</title>
<g id="a_node2"><a xlink:href="../client/src/handlers/handler.js" xlink:title="handler.js">
<path fill="#ffffcc" stroke="black" d="M236.81,-76.3C236.81,-76.3 194.2,-76.3 194.2,-76.3 191.1,-76.3 188,-73.2 188,-70.1 188,-70.1 188,-63.9 188,-63.9 188,-60.8 191.1,-57.7 194.2,-57.7 194.2,-57.7 236.81,-57.7 236.81,-57.7 239.91,-57.7 243.01,-60.8 243.01,-63.9 243.01,-63.9 243.01,-70.1 243.01,-70.1 243.01,-73.2 239.91,-76.3 236.81,-76.3"/>
<text text-anchor="middle" x="215.5" y="-64.3" font-family="Helvetica,sans-Serif" font-size="9.00">handler.js</text>
</a>
</g>
</g>
<!-- client/src/init/index.js -->
<g id="node3" class="node">
<title>client/src/init/index.js</title>
<g id="a_node3"><a xlink:href="../client/src/init/index.js" xlink:title="index.js">
<path fill="#ffffcc" stroke="black" d="M79.8,-76.3C79.8,-76.3 38.2,-76.3 38.2,-76.3 35.1,-76.3 32,-73.2 32,-70.1 32,-70.1 32,-63.9 32,-63.9 32,-60.8 35.1,-57.7 38.2,-57.7 38.2,-57.7 79.8,-57.7 79.8,-57.7 82.9,-57.7 86,-60.8 86,-63.9 86,-63.9 86,-70.1 86,-70.1 86,-73.2 82.9,-76.3 79.8,-76.3"/>
<text text-anchor="middle" x="59" y="-64.3" font-family="Helvetica,sans-Serif" font-size="9.00">index.js</text>
</a>
</g>
</g>
<!-- client/src/listeners/listener.js -->
<g id="node4" class="node">
<title>client/src/listeners/listener.js</title>
<g id="a_node4"><a xlink:href="../client/src/listeners/listener.js" xlink:title="listener.js">
<path fill="#ffffcc" stroke="black" d="M157.8,-76.3C157.8,-76.3 116.2,-76.3 116.2,-76.3 113.1,-76.3 110,-73.2 110,-70.1 110,-70.1 110,-63.9 110,-63.9 110,-60.8 113.1,-57.7 116.2,-57.7 116.2,-57.7 157.8,-57.7 157.8,-57.7 160.9,-57.7 164,-60.8 164,-63.9 164,-63.9 164,-70.1 164,-70.1 164,-73.2 160.9,-76.3 157.8,-76.3"/>
<text text-anchor="middle" x="137" y="-64.3" font-family="Helvetica,sans-Serif" font-size="9.00">listener.js</text>
</a>
</g>
</g>
<!-- client/src/init/index.js&#45;&gt;client/src/listeners/listener.js -->
<g id="edge1" class="edge">
<title>client/src/init/index.js&#45;&gt;client/src/listeners/listener.js</title>
<path fill="none" stroke="#000000" stroke-width="2" stroke-opacity="0.200000" d="M86.15,-67C91.77,-67 97.76,-67 103.58,-67"/>
<polygon fill="#000000" fill-opacity="0.200000" stroke="#000000" stroke-width="2" stroke-opacity="0.200000" points="103.8,-69.1 109.8,-67 103.8,-64.9 103.8,-69.1"/>
</g>
<!-- client/src/listeners/listener.js&#45;&gt;client/src/handlers/handler.js -->
<g id="edge2" class="edge">
<title>client/src/listeners/listener.js&#45;&gt;client/src/handlers/handler.js</title>
<path fill="none" stroke="#000000" stroke-width="2" stroke-opacity="0.200000" d="M164.33,-67C169.91,-67 175.88,-67 181.67,-67"/>
<polygon fill="#000000" fill-opacity="0.200000" stroke="#000000" stroke-width="2" stroke-opacity="0.200000" points="181.87,-69.1 187.87,-67 181.87,-64.9 181.87,-69.1"/>
</g>
</g>
</svg>
