<svg version="1.1" xmlns="http://www.w3.org/2000/svg" viewBox="0 0 1130.7182539682542 797" width="1130.7182539682542" height="797">
  <!-- svg-source:excalidraw -->
  
  <defs>
    <style>
      @font-face {
        font-family: "Virgil";
        src: url("https://excalidraw.com/Virgil.woff2");
      }
      @font-face {
        font-family: "Cascadia";
        src: url("https://excalidraw.com/Cascadia.woff2");
      }
    </style>
  </defs>
  <rect x="0" y="0" width="1130.7182539682542" height="797" fill="#f8f9fa"></rect><g stroke-opacity="0.8" fill-opacity="0.8" transform="translate(477.0515873015876 712.0277777777779) rotate(0 35.00000000000006 24)"><text x="0" y="19" font-family="Cascadia, Segoe UI Emoji" font-size="20px" fill="#e67700" text-anchor="start" style="white-space: pre;" direction="ltr">Clear </text><text x="0" y="43" font-family="Cascadia, Segoe UI Emoji" font-size="20px" fill="#e67700" text-anchor="start" style="white-space: pre;" direction="ltr">button</text></g><g stroke-linecap="round" transform="translate(561.1466588345916 136.5033625207236) rotate(0 80.164044320078 20.35942985074948)"><path d="M0 0 L160.33 0 L160.33 40.72 L0 40.72" stroke="none" stroke-width="0" fill="#ffffff"></path><path d="M0 0 C60.62 0, 121.24 0, 160.33 0 M0 0 C63.31 0, 126.61 0, 160.33 0 M160.33 0 C160.33 8.98, 160.33 17.96, 160.33 40.72 M160.33 0 C160.33 9.61, 160.33 19.23, 160.33 40.72 M160.33 40.72 C115.02 40.72, 69.72 40.72, 0 40.72 M160.33 40.72 C96.64 40.72, 32.96 40.72, 0 40.72 M0 40.72 C0 25.01, 0 9.3, 0 0 M0 40.72 C0 26.28, 0 11.84, 0 0" stroke="#e67700" stroke-width="1" fill="none"></path></g><g stroke-linecap="round"><g transform="translate(734.6078118394187 159.53513451299025) rotate(0 68.80720519140175 -1.5809368904414498)"><path d="M0 0 C22.94 -0.53, 114.68 -2.63, 137.61 -3.16 M0 0 C22.94 -0.53, 114.68 -2.63, 137.61 -3.16" stroke="#e67700" stroke-width="1" fill="none"></path></g><g transform="translate(734.6078118394187 159.53513451299025) rotate(0 68.80720519140175 -1.5809368904414498)"><path d="M109.67 7.74 C119.77 3.8, 129.87 -0.14, 137.61 -3.16 M109.67 7.74 C116.61 5.04, 123.54 2.33, 137.61 -3.16" stroke="#e67700" stroke-width="1" fill="none"></path></g><g transform="translate(734.6078118394187 159.53513451299025) rotate(0 68.80720519140175 -1.5809368904414498)"><path d="M109.2 -12.77 C119.47 -9.3, 129.74 -5.83, 137.61 -3.16 M109.2 -12.77 C116.25 -10.39, 123.31 -8, 137.61 -3.16" stroke="#e67700" stroke-width="1" fill="none"></path></g></g><g transform="translate(890.3333333333333 135.61111111111117) rotate(0 112.5 28.5)"><text x="0" y="15" font-family="Cascadia, Segoe UI Emoji" font-size="16px" fill="#e67700" text-anchor="start" style="white-space: pre;" direction="ltr">list will be sorted by: </text><text x="0" y="34" font-family="Cascadia, Segoe UI Emoji" font-size="16px" fill="#e67700" text-anchor="start" style="white-space: pre;" direction="ltr">*completed</text><text x="0" y="53" font-family="Cascadia, Segoe UI Emoji" font-size="16px" fill="#e67700" text-anchor="start" style="white-space: pre;" direction="ltr">*uncompleted </text></g><g stroke-opacity="0.8" fill-opacity="0.8" stroke-linecap="round" transform="translate(435.71825396825443 698.4166666666667) rotate(0 69.44444444444446 33.33333333333337)"><path d="M0 0 C34.82 0, 69.64 0, 138.89 0 M0 0 C43.23 0, 86.46 0, 138.89 0 M138.89 0 C138.89 14.28, 138.89 28.56, 138.89 66.67 M138.89 0 C138.89 18.09, 138.89 36.18, 138.89 66.67 M138.89 66.67 C99 66.67, 59.12 66.67, 0 66.67 M138.89 66.67 C88.32 66.67, 37.74 66.67, 0 66.67 M0 66.67 C0 43.54, 0 20.41, 0 0 M0 66.67 C0 41.84, 0 17.01, 0 0" stroke="#e67700" stroke-width="1" fill="none"></path></g><g stroke-opacity="0.8" fill-opacity="0.8" transform="translate(295.6071428571431 710.0277777777779) rotate(0 35 24)"><text x="0" y="19" font-family="Cascadia, Segoe UI Emoji" font-size="20px" fill="#4c6ef5" text-anchor="start" style="white-space: pre;" direction="ltr">Share</text><text x="0" y="43" font-family="Cascadia, Segoe UI Emoji" font-size="20px" fill="#4c6ef5" text-anchor="start" style="white-space: pre;" direction="ltr">button</text></g><g stroke-opacity="0.8" fill-opacity="0.8" stroke-linecap="round" transform="translate(262.9404761904765 700.6388888888891) rotate(0 69.4444444444444 33.33333333333337)"><path d="M0 0 C52.05 0, 104.1 0, 138.89 0 M0 0 C48.53 0, 97.06 0, 138.89 0 M138.89 0 C138.89 22.77, 138.89 45.54, 138.89 66.67 M138.89 0 C138.89 14.6, 138.89 29.2, 138.89 66.67 M138.89 66.67 C96.5 66.67, 54.11 66.67, 0 66.67 M138.89 66.67 C107.91 66.67, 76.93 66.67, 0 66.67 M0 66.67 C0 40.91, 0 15.14, 0 0 M0 66.67 C0 43.53, 0 20.39, 0 0" stroke="#4c6ef5" stroke-width="1" fill="none"></path></g><g stroke-linecap="round"><g transform="translate(521.8664540497764 130.88861670279033) rotate(0 181.13224185695333 -25.467109032862744)"><path d="M0 0 C60.38 -8.49, 301.89 -42.45, 362.26 -50.93 M0 0 C60.38 -8.49, 301.89 -42.45, 362.26 -50.93" stroke="#862e9c" stroke-width="1" fill="none"></path></g><g transform="translate(521.8664540497764 130.88861670279033) rotate(0 181.13224185695333 -25.467109032862744)"><path d="M335.78 -36.85 C346 -42.28, 356.22 -47.72, 362.26 -50.93 M335.78 -36.85 C345.48 -42.01, 355.19 -47.17, 362.26 -50.93" stroke="#862e9c" stroke-width="1" fill="none"></path></g><g transform="translate(521.8664540497764 130.88861670279033) rotate(0 181.13224185695333 -25.467109032862744)"><path d="M332.92 -57.17 C344.24 -54.76, 355.57 -52.36, 362.26 -50.93 M332.92 -57.17 C343.67 -54.88, 354.43 -52.6, 362.26 -50.93" stroke="#862e9c" stroke-width="1" fill="none"></path></g></g><g stroke-opacity="0.8" fill-opacity="0.8" stroke-linecap="round" transform="translate(602.384920634921 258.9722222222225) rotate(0 27.22222222222217 21.111111111111086)"><path d="M0 0 L54.44 0 L54.44 42.22 L0 42.22" stroke="none" stroke-width="0" fill="red"></path><path d="M0 0 C18 0, 35.99 0, 54.44 0 M0 0 C21.66 0, 43.32 0, 54.44 0 M54.44 0 C54.44 14.82, 54.44 29.63, 54.44 42.22 M54.44 0 C54.44 10.57, 54.44 21.14, 54.44 42.22 M54.44 42.22 C36.99 42.22, 19.54 42.22, 0 42.22 M54.44 42.22 C39.62 42.22, 24.81 42.22, 0 42.22 M0 42.22 C0 27.58, 0 12.94, 0 0 M0 42.22 C0 31.02, 0 19.81, 0 0" stroke="#be4bdb" stroke-width="1" fill="none"></path></g><g stroke-opacity="0.8" fill-opacity="0.8" transform="translate(541.9404761904764 260.2500000000001) rotate(0 23.5 19)"><text x="23.5" y="15" font-family="Cascadia, Segoe UI Emoji" font-size="16px" fill="#be4bdb" text-anchor="middle" style="white-space: pre;" direction="ltr">Check</text><text x="23.5" y="34" font-family="Cascadia, Segoe UI Emoji" font-size="16px" fill="#be4bdb" text-anchor="middle" style="white-space: pre;" direction="ltr">icon</text></g><g stroke-opacity="0.8" fill-opacity="0.8" transform="translate(547.9404761904764 342.4722222222224) rotate(0 23.5 19)"><text x="23.5" y="15" font-family="Cascadia, Segoe UI Emoji" font-size="16px" fill="#be4bdb" text-anchor="middle" style="white-space: pre;" direction="ltr">Check</text><text x="23.5" y="34" font-family="Cascadia, Segoe UI Emoji" font-size="16px" fill="#be4bdb" text-anchor="middle" style="white-space: pre;" direction="ltr">icon</text></g><g stroke-opacity="0.8" fill-opacity="0.8" transform="translate(610.9404761904766 343.3055555555559) rotate(0 28 19)"><text x="28" y="15" font-family="Cascadia, Segoe UI Emoji" font-size="16px" fill="#be4bdb" text-anchor="middle" style="white-space: pre;" direction="ltr">Trash </text><text x="28" y="34" font-family="Cascadia, Segoe UI Emoji" font-size="16px" fill="#be4bdb" text-anchor="middle" style="white-space: pre;" direction="ltr">icon</text></g><g stroke-opacity="0.8" fill-opacity="0.8" transform="translate(550.1626984126988 422.4722222222223) rotate(0 23.5 19)"><text x="23.5" y="15" font-family="Cascadia, Segoe UI Emoji" font-size="16px" fill="#be4bdb" text-anchor="middle" style="white-space: pre;" direction="ltr">Check</text><text x="23.5" y="34" font-family="Cascadia, Segoe UI Emoji" font-size="16px" fill="#be4bdb" text-anchor="middle" style="white-space: pre;" direction="ltr">icon</text></g><g stroke-opacity="0.8" fill-opacity="0.8" transform="translate(613.1626984126988 423.30555555555577) rotate(0 28 19)"><text x="28" y="15" font-family="Cascadia, Segoe UI Emoji" font-size="16px" fill="#be4bdb" text-anchor="middle" style="white-space: pre;" direction="ltr">Trash </text><text x="28" y="34" font-family="Cascadia, Segoe UI Emoji" font-size="16px" fill="#be4bdb" text-anchor="middle" style="white-space: pre;" direction="ltr">icon</text></g><g stroke-linecap="round" transform="translate(203.77777777777783 137.00000000000003) rotate(0 107.10622927593397 20.287639136260253)"><path d="M0 0 L214.21 0 L214.21 40.58 L0 40.58" stroke="none" stroke-width="0" fill="white"></path><path d="M0 0 C76.57 0, 153.13 0, 214.21 0 M0 0 C51.68 0, 103.37 0, 214.21 0 M214.21 0 C214.21 9.38, 214.21 18.76, 214.21 40.58 M214.21 0 C214.21 10.22, 214.21 20.45, 214.21 40.58 M214.21 40.58 C154.57 40.58, 94.93 40.58, 0 40.58 M214.21 40.58 C158.34 40.58, 102.47 40.58, 0 40.58 M0 40.58 C0 31.13, 0 21.69, 0 0 M0 40.58 C0 26.2, 0 11.83, 0 0" stroke="#be4bdb" stroke-width="1" fill="none"></path></g><g transform="translate(893.6364114939527 68.98257929335912) rotate(0 37.5 10)"><text x="37.5" y="16" font-family="Cascadia, Segoe UI Emoji" font-size="16.06315483396274px" fill="#be4bdb" text-anchor="middle" style="white-space: pre;" direction="ltr">add icon</text></g><g transform="translate(311.87596899224775 46.42260502691299) rotate(0 136.00000000000006 28)"><text x="136" y="45" font-family="Cascadia, Segoe UI Emoji" font-size="46.41594536046389px" fill="#be4bdb" text-anchor="middle" style="white-space: pre;" direction="ltr">To do list</text></g><g stroke-opacity="0.8" fill-opacity="0.8" transform="translate(604.9404761904764 261.0833333333336) rotate(0 28 19)"><text x="28" y="15" font-family="Cascadia, Segoe UI Emoji" font-size="16px" fill="#000000" text-anchor="middle" style="white-space: pre;" direction="ltr">Trash </text><text x="28" y="34" font-family="Cascadia, Segoe UI Emoji" font-size="16px" fill="#000000" text-anchor="middle" style="white-space: pre;" direction="ltr">icon</text></g><g stroke-linecap="round"><g stroke-opacity="0.8" fill-opacity="0.8" transform="translate(669.6071428571431 280.638888888889) rotate(0 100 1.6666666666666856)"><path d="M0 0 C33.33 0.56, 166.67 2.78, 200 3.33 M0 0 C33.33 0.56, 166.67 2.78, 200 3.33" stroke="#be4bdb" stroke-width="1" fill="none"></path></g><g stroke-opacity="0.8" fill-opacity="0.8" transform="translate(669.6071428571431 280.638888888889) rotate(0 100 1.6666666666666856)"><path d="M171.64 13.12 C177.68 11.04, 183.71 8.96, 200 3.33 M171.64 13.12 C179.31 10.48, 186.98 7.83, 200 3.33" stroke="#be4bdb" stroke-width="1" fill="none"></path></g><g stroke-opacity="0.8" fill-opacity="0.8" transform="translate(669.6071428571431 280.638888888889) rotate(0 100 1.6666666666666856)"><path d="M171.98 -7.4 C177.95 -5.11, 183.91 -2.83, 200 3.33 M171.98 -7.4 C179.56 -4.49, 187.13 -1.59, 200 3.33" stroke="#be4bdb" stroke-width="1" fill="none"></path></g></g><g stroke-linecap="round" transform="translate(111 10.000000000000028) rotate(0 343 388.5)"><path d="M-0.49 -0.03 C226.12 -0.33, 450.73 -0.94, 686.59 0.47 M-0.25 -0.18 C200.34 -1.16, 400.71 -1.33, 686.01 -0.31 M686.42 -0.51 C684.86 268.75, 686.17 536.35, 686.46 777.14 M686.21 0.23 C687.97 175.42, 687.85 351.76, 685.7 777.24 M685.22 777.23 C527.18 774.91, 368.66 773.88, 0.71 777.64 M685.8 776.63 C537.35 777.04, 387.94 777.48, -0.2 776.98 M0.15 776.56 C-0.13 555.29, 0.33 333.3, -0.77 -0.1 M0.21 777.13 C0.06 554.84, 0.07 332.28, 0.3 -0.29" stroke="#000000" stroke-width="1" fill="none"></path></g><g stroke-opacity="0.3" fill-opacity="0.3" transform="translate(229.8711189261619 147.50575456350373) rotate(0 45.5 9.5)"><text x="0" y="15" font-family="Cascadia, Segoe UI Emoji" font-size="15.590709103552069px" fill="#000000" text-anchor="start" style="white-space: pre;" direction="ltr">write here</text></g><g transform="translate(585.7053951512935 148.73497710721645) rotate(0 14 10)"><text x="14" y="16" font-family="Cascadia, Segoe UI Emoji" font-size="16.063154833962738px" fill="#000000" text-anchor="middle" style="white-space: pre;" direction="ltr">All</text></g><g stroke-linecap="round" transform="translate(454.7247247698431 139.4969661765042) rotate(0 31.027593462936295 18.406079422725767)"><path d="M0 0 L62.06 0 L62.06 36.81 L0 36.81" stroke="none" stroke-width="0" fill="#ffffffff"></path><path d="M0 0 C21.49 0, 42.98 0, 62.06 0 M0 0 C23.28 0, 46.56 0, 62.06 0 M62.06 0 C62.06 7.98, 62.06 15.96, 62.06 36.81 M62.06 0 C62.06 11.74, 62.06 23.49, 62.06 36.81 M62.06 36.81 C40.13 36.81, 18.21 36.81, 0 36.81 M62.06 36.81 C39.86 36.81, 17.67 36.81, 0 36.81 M0 36.81 C0 26.79, 0 16.78, 0 0 M0 36.81 C0 22.89, 0 8.98, 0 0" stroke="#be4bdb" stroke-width="1" fill="none"></path></g><g stroke-linecap="round"><g transform="translate(297.16666666666674 90.5081566023737) rotate(0 -110.58333333333337 2.745921698813163)"><path d="M0 0 C-36.86 0.92, -184.31 4.58, -221.17 5.49 M0 0 C-36.86 0.92, -184.31 4.58, -221.17 5.49" stroke="#862e9c" stroke-width="1" fill="none"></path></g><g transform="translate(297.16666666666674 90.5081566023737) rotate(0 -110.58333333333337 2.745921698813163)"><path d="M-193.24 -5.47 C-204.38 -1.09, -215.52 3.28, -221.17 5.49 M-193.24 -5.47 C-199.36 -3.07, -205.47 -0.67, -221.17 5.49" stroke="#862e9c" stroke-width="1" fill="none"></path></g><g transform="translate(297.16666666666674 90.5081566023737) rotate(0 -110.58333333333337 2.745921698813163)"><path d="M-192.73 15.05 C-204.07 11.24, -215.42 7.42, -221.17 5.49 M-192.73 15.05 C-198.96 12.96, -205.18 10.86, -221.17 5.49" stroke="#862e9c" stroke-width="1" fill="none"></path></g></g><g transform="translate(11 87.50000000000003) rotate(0 23.5 9.5)"><text x="0" y="15" font-family="Cascadia, Segoe UI Emoji" font-size="16px" fill="#862e9c" text-anchor="start" style="white-space: pre;" direction="ltr">Title</text></g><g stroke-linecap="round"><g transform="translate(202.40067188334535 160.82356032418875) rotate(0 -62.70033594167268 -2.9117801620943595)"><path d="M0 0 C-20.9 -0.97, -104.5 -4.85, -125.4 -5.82 M0 0 C-20.9 -0.97, -104.5 -4.85, -125.4 -5.82" stroke="#be4bdb" stroke-width="1" fill="none"></path></g><g transform="translate(202.40067188334535 160.82356032418875) rotate(0 -62.70033594167268 -2.9117801620943595)"><path d="M-96.76 -14.77 C-107.5 -11.41, -118.23 -8.06, -125.4 -5.82 M-96.76 -14.77 C-104.82 -12.25, -112.87 -9.74, -125.4 -5.82" stroke="#be4bdb" stroke-width="1" fill="none"></path></g><g transform="translate(202.40067188334535 160.82356032418875) rotate(0 -62.70033594167268 -2.9117801620943595)"><path d="M-97.72 5.73 C-108.09 1.4, -118.46 -2.93, -125.4 -5.82 M-97.72 5.73 C-105.5 2.48, -113.29 -0.77, -125.4 -5.82" stroke="#be4bdb" stroke-width="1" fill="none"></path></g></g><g transform="translate(10 146.50000000000003) rotate(0 23.5 9.5)"><text x="0" y="15" font-family="Cascadia, Segoe UI Emoji" font-size="16px" fill="#be4bdb" text-anchor="start" style="white-space: pre;" direction="ltr">Input</text></g><g transform="translate(19.77777777777777 272.6111111111111) rotate(0 19.00000000000003 9.5)"><text x="0" y="15" font-family="Cascadia, Segoe UI Emoji" font-size="16px" fill="#be4bdb" text-anchor="start" style="white-space: pre;" direction="ltr">List</text></g><g stroke-linecap="round"><g transform="translate(222.223841311721 276.8383738119301) rotate(3.9019912050572523 -75.7536032164827 2.812396930325775)"><path d="M0 0 C-25.25 0.94, -126.26 4.69, -151.51 5.62 M0 0 C-25.25 0.94, -126.26 4.69, -151.51 5.62" stroke="#be4bdb" stroke-width="1" fill="none"></path></g><g transform="translate(222.223841311721 276.8383738119301) rotate(3.9019912050572523 -75.7536032164827 2.812396930325775)"><path d="M-123.72 -5.67 C-129.85 -3.18, -135.98 -0.69, -151.51 5.62 M-123.72 -5.67 C-133.14 -1.84, -142.56 1.99, -151.51 5.62" stroke="#be4bdb" stroke-width="1" fill="none"></path></g><g transform="translate(222.223841311721 276.8383738119301) rotate(3.9019912050572523 -75.7536032164827 2.812396930325775)"><path d="M-122.96 14.83 C-129.25 12.8, -135.55 10.77, -151.51 5.62 M-122.96 14.83 C-132.63 11.71, -142.31 8.59, -151.51 5.62" stroke="#be4bdb" stroke-width="1" fill="none"></path></g></g><g stroke-opacity="0.8" fill-opacity="0.8" stroke-linecap="round" transform="translate(235.16269841269866 258.41666666666697) rotate(0 141.66666666666669 23.333333333333314)"><path d="M0 0 L283.33 0 L283.33 46.67 L0 46.67" stroke="none" stroke-width="0" fill="#ffffff"></path><path d="M0 0 C77.03 0, 154.07 0, 283.33 0 M0 0 C60.05 0, 120.11 0, 283.33 0 M283.33 0 C283.33 9.84, 283.33 19.68, 283.33 46.67 M283.33 0 C283.33 12.19, 283.33 24.37, 283.33 46.67 M283.33 46.67 C184.96 46.67, 86.58 46.67, 0 46.67 M283.33 46.67 C218.08 46.67, 152.83 46.67, 0 46.67 M0 46.67 C0 32.67, 0 18.67, 0 0 M0 46.67 C0 29.81, 0 12.95, 0 0" stroke="#be4bdb" stroke-width="1" fill="none"></path></g><g stroke-opacity="0.8" fill-opacity="0.8" stroke-linecap="round" transform="translate(534.6626984126988 259.69444444444457) rotate(0 29.999999999999886 20.555555555555543)"><path d="M0 0 L60 0 L60 41.11 L0 41.11" stroke="none" stroke-width="0" fill="#5c940d"></path><path d="M0 0 C18.39 0, 36.79 0, 60 0 M0 0 C17.2 0, 34.41 0, 60 0 M60 0 C60 9.53, 60 19.05, 60 41.11 M60 0 C60 9.08, 60 18.17, 60 41.11 M60 41.11 C46.2 41.11, 32.39 41.11, 0 41.11 M60 41.11 C44.81 41.11, 29.63 41.11, 0 41.11 M0 41.11 C0 26.18, 0 11.25, 0 0 M0 41.11 C0 32.81, 0 24.52, 0 0" stroke="#be4bdb" stroke-width="1" fill="none"></path></g><g stroke-opacity="0.8" fill-opacity="0.8" stroke-linecap="round" transform="translate(241.16269841269855 340.63888888888914) rotate(0 141.66666666666674 23.333333333333314)"><path d="M0 0 L283.33 0 L283.33 46.67 L0 46.67" stroke="none" stroke-width="0" fill="#ffffff"></path><path d="M0 0 C103.72 0, 207.45 0, 283.33 0 M0 0 C84.42 0, 168.84 0, 283.33 0 M283.33 0 C283.33 18.53, 283.33 37.06, 283.33 46.67 M283.33 0 C283.33 15.61, 283.33 31.22, 283.33 46.67 M283.33 46.67 C182.95 46.67, 82.57 46.67, 0 46.67 M283.33 46.67 C170.19 46.67, 57.05 46.67, 0 46.67 M0 46.67 C0 31.85, 0 17.04, 0 0 M0 46.67 C0 29.37, 0 12.07, 0 0" stroke="#be4bdb" stroke-width="1" fill="none"></path></g><g stroke-opacity="0.8" fill-opacity="0.8" stroke-linecap="round" transform="translate(538.6626984126992 340.91666666666674) rotate(0 29.999999999999886 20.555555555555543)"><path d="M0 0 L60 0 L60 41.11 L0 41.11" stroke="none" stroke-width="0" fill="#5c940d"></path><path d="M0 0 C16.71 0, 33.41 0, 60 0 M0 0 C12.14 0, 24.28 0, 60 0 M60 0 C60 15.12, 60 30.24, 60 41.11 M60 0 C60 13.42, 60 26.84, 60 41.11 M60 41.11 C44.42 41.11, 28.84 41.11, 0 41.11 M60 41.11 C46.07 41.11, 32.13 41.11, 0 41.11 M0 41.11 C0 25.82, 0 10.52, 0 0 M0 41.11 C0 28.28, 0 15.45, 0 0" stroke="#5c940d" stroke-width="1" fill="none"></path></g><g stroke-opacity="0.8" fill-opacity="0.8" stroke-linecap="round" transform="translate(608.3849206349214 341.1944444444448) rotate(0 27.22222222222217 21.111111111111086)"><path d="M0 0 L54.44 0 L54.44 42.22 L0 42.22" stroke="none" stroke-width="0" fill="red"></path><path d="M0 0 C14.89 0, 29.78 0, 54.44 0 M0 0 C16.8 0, 33.6 0, 54.44 0 M54.44 0 C54.44 9.58, 54.44 19.16, 54.44 42.22 M54.44 0 C54.44 10.85, 54.44 21.71, 54.44 42.22 M54.44 42.22 C35.99 42.22, 17.54 42.22, 0 42.22 M54.44 42.22 C40.5 42.22, 26.55 42.22, 0 42.22 M0 42.22 C0 30.18, 0 18.13, 0 0 M0 42.22 C0 32.12, 0 22.01, 0 0" stroke="red" stroke-width="1" fill="none"></path></g><g stroke-opacity="0.8" fill-opacity="0.8" stroke-linecap="round" transform="translate(243.38492063492117 420.63888888888914) rotate(0 141.66666666666674 23.333333333333314)"><path d="M0 0 L283.33 0 L283.33 46.67 L0 46.67" stroke="none" stroke-width="0" fill="#ffffff"></path><path d="M0 0 C111.9 0, 223.8 0, 283.33 0 M0 0 C101.07 0, 202.13 0, 283.33 0 M283.33 0 C283.33 14.21, 283.33 28.43, 283.33 46.67 M283.33 0 C283.33 14.4, 283.33 28.79, 283.33 46.67 M283.33 46.67 C217.27 46.67, 151.2 46.67, 0 46.67 M283.33 46.67 C182.13 46.67, 80.94 46.67, 0 46.67 M0 46.67 C0 34.43, 0 22.2, 0 0 M0 46.67 C0 32.99, 0 19.31, 0 0" stroke="#be4bdb" stroke-width="1" fill="none"></path></g><g stroke-opacity="0.8" fill-opacity="0.8" stroke-linecap="round" transform="translate(540.8849206349213 420.91666666666674) rotate(0 29.999999999999943 20.555555555555543)"><path d="M0 0 L60 0 L60 41.11 L0 41.11" stroke="none" stroke-width="0" fill="#5c940d"></path><path d="M0 0 C13.33 0, 26.66 0, 60 0 M0 0 C12.58 0, 25.16 0, 60 0 M60 0 C60 15.01, 60 30.02, 60 41.11 M60 0 C60 10.95, 60 21.9, 60 41.11 M60 41.11 C37.17 41.11, 14.34 41.11, 0 41.11 M60 41.11 C45.96 41.11, 31.91 41.11, 0 41.11 M0 41.11 C0 30.77, 0 20.43, 0 0 M0 41.11 C0 30.81, 0 20.52, 0 0" stroke="#5c940d" stroke-width="1" fill="none"></path></g><g stroke-opacity="0.8" fill-opacity="0.8" stroke-linecap="round" transform="translate(610.6071428571436 421.1944444444447) rotate(0 27.22222222222217 21.111111111111086)"><path d="M0 0 L54.44 0 L54.44 42.22 L0 42.22" stroke="none" stroke-width="0" fill="red"></path><path d="M0 0 C19.49 0, 38.98 0, 54.44 0 M0 0 C13.12 0, 26.25 0, 54.44 0 M54.44 0 C54.44 12.72, 54.44 25.43, 54.44 42.22 M54.44 0 C54.44 15.67, 54.44 31.33, 54.44 42.22 M54.44 42.22 C42.82 42.22, 31.19 42.22, 0 42.22 M54.44 42.22 C41.14 42.22, 27.83 42.22, 0 42.22 M0 42.22 C0 28.99, 0 15.75, 0 0 M0 42.22 C0 28.87, 0 15.52, 0 0" stroke="red" stroke-width="1" fill="none"></path></g><g stroke-opacity="0.8" fill-opacity="0.8" transform="translate(474.5856515661127 135.7363789325633) rotate(0 11.5 22.5)"><text x="11.5" y="32" font-family="Virgil, Segoe UI Emoji" font-size="36px" fill="#be4bdb" text-anchor="middle" style="white-space: pre;" direction="ltr">+</text></g><g stroke-opacity="0.8" fill-opacity="0.8" stroke-linecap="round" transform="translate(857.3849206349207 520.638888888889) rotate(0 31.666666666666742 20.5555555555556)"><path d="M0 0 L63.33 0 L63.33 41.11 L0 41.11" stroke="none" stroke-width="0" fill="#be4bdb"></path><path d="M0 0 C23.6 0, 47.2 0, 63.33 0 M0 0 C21.51 0, 43.02 0, 63.33 0 M63.33 0 C63.33 11.4, 63.33 22.81, 63.33 41.11 M63.33 0 C63.33 14.91, 63.33 29.83, 63.33 41.11 M63.33 41.11 C42.26 41.11, 21.18 41.11, 0 41.11 M63.33 41.11 C49.73 41.11, 36.13 41.11, 0 41.11 M0 41.11 C0 25.92, 0 10.72, 0 0 M0 41.11 C0 30.49, 0 19.87, 0 0" stroke="#343a40" stroke-width="1" fill="none"></path></g><g stroke-opacity="0.8" fill-opacity="0.8" stroke-linecap="round" transform="translate(859.0515873015872 577.8611111111114) rotate(0 31.666666666666742 20.5555555555556)"><path d="M0 0 L63.33 0 L63.33 41.11 L0 41.11" stroke="none" stroke-width="0" fill="#fab005"></path><path d="M0 0 C22.98 0, 45.95 0, 63.33 0 M0 0 C21.08 0, 42.15 0, 63.33 0 M63.33 0 C63.33 8.83, 63.33 17.66, 63.33 41.11 M63.33 0 C63.33 15.19, 63.33 30.39, 63.33 41.11 M63.33 41.11 C46.97 41.11, 30.61 41.11, 0 41.11 M63.33 41.11 C44.87 41.11, 26.41 41.11, 0 41.11 M0 41.11 C0 26.69, 0 12.26, 0 0 M0 41.11 C0 26.08, 0 11.05, 0 0" stroke="#343a40" stroke-width="1" fill="none"></path></g><g stroke-opacity="0.8" fill-opacity="0.8" stroke-linecap="round" transform="translate(863.4960317460316 637.8611111111114) rotate(0 31.666666666666742 20.5555555555556)"><path d="M0 0 L63.33 0 L63.33 41.11 L0 41.11" stroke="none" stroke-width="0" fill="#4c6ef5"></path><path d="M0 0 C16.43 0, 32.86 0, 63.33 0 M0 0 C16.4 0, 32.79 0, 63.33 0 M63.33 0 C63.33 10.91, 63.33 21.82, 63.33 41.11 M63.33 0 C63.33 14.47, 63.33 28.95, 63.33 41.11 M63.33 41.11 C39.79 41.11, 16.25 41.11, 0 41.11 M63.33 41.11 C40.23 41.11, 17.12 41.11, 0 41.11 M0 41.11 C0 29.68, 0 18.25, 0 0 M0 41.11 C0 29.13, 0 17.15, 0 0" stroke="#343a40" stroke-width="1" fill="none"></path></g><g stroke-opacity="0.8" fill-opacity="0.8" transform="translate(937.384920634921 525.7500000000002) rotate(0 74 17)"><text x="0" y="27" font-family="Cascadia, Segoe UI Emoji" font-size="28px" fill="#343a40" text-anchor="start" style="white-space: pre;" direction="ltr">Must have</text></g><g stroke-opacity="0.8" fill-opacity="0.8" transform="translate(940.7182539682542 579.3611111111113) rotate(0 90 17)"><text x="0" y="27" font-family="Cascadia, Segoe UI Emoji" font-size="28px" fill="#343a40" text-anchor="start" style="white-space: pre;" direction="ltr">Should have</text></g><g stroke-opacity="0.8" fill-opacity="0.8" transform="translate(940.7182539682542 642.6944444444447) rotate(0 82 17)"><text x="0" y="27" font-family="Cascadia, Segoe UI Emoji" font-size="28px" fill="#343a40" text-anchor="start" style="white-space: pre;" direction="ltr">Could have</text></g><g stroke-opacity="0.8" fill-opacity="0.8" transform="translate(876.2738095238099 268.2500000000002) rotate(0 99.5 12)"><text x="0" y="19" font-family="Cascadia, Segoe UI Emoji" font-size="20px" fill="#be4bdb" text-anchor="start" style="white-space: pre;" direction="ltr">Check/trash icons</text></g></svg>