<svg version="1.1" xmlns="http://www.w3.org/2000/svg" viewBox="0 0 1332.4484126984128 797" width="1332.4484126984128" height="797">
  <!-- svg-source:excalidraw -->
  
  <defs>
    <style>
      @font-face {
        font-family: "Virgil";
        src: url("https://excalidraw.com/Virgil.woff2");
      }
      @font-face {
        font-family: "Cascadia";
        src: url("https://excalidraw.com/Cascadia.woff2");
      }
    </style>
  </defs>
  <rect x="0" y="0" width="1332.4484126984128" height="797" fill="#ffffff"></rect><g stroke-opacity="0.8" fill-opacity="0.8" transform="translate(587.6304465225652 238.1805914441578) rotate(0 43.55900086132641 8.80447889750215)"><text x="0" y="14.608957795004311" font-family="Cascadia, Segoe UI Emoji" font-size="14.828596037898365px" fill="#2b8a3e" text-anchor="start" style="white-space: pre;" direction="ltr">trash icon</text></g><g transform="translate(890.7261904761901 120.05555555555557) rotate(0 93.5 24)"><text x="0" y="13" font-family="Cascadia, Segoe UI Emoji" font-size="13.86008230452675px" fill="#364fc7" text-anchor="start" style="white-space: pre;" direction="ltr">list will be sorted by </text><text x="0" y="29" font-family="Cascadia, Segoe UI Emoji" font-size="13.86008230452675px" fill="#364fc7" text-anchor="start" style="white-space: pre;" direction="ltr">* new&gt;old / old&gt;new</text><text x="0" y="45" font-family="Cascadia, Segoe UI Emoji" font-size="13.86008230452675px" fill="#364fc7" text-anchor="start" style="white-space: pre;" direction="ltr"></text></g><g stroke-linecap="round"><g stroke-opacity="0.8" fill-opacity="0.8" transform="translate(700.4050232306267 201.48312681098795) rotate(0 224.16849426076874 -14.169890739693216)"><path d="M0 0 C74.72 -4.72, 373.61 -23.62, 448.34 -28.34 M0 0 C74.72 -4.72, 373.61 -23.62, 448.34 -28.34" stroke="#364fc7" stroke-width="1" fill="none"></path></g><g stroke-opacity="0.8" fill-opacity="0.8" transform="translate(700.4050232306267 201.48312681098795) rotate(0 224.16849426076874 -14.169890739693216)"><path d="M420.85 -16.32 C431.52 -20.99, 442.2 -25.66, 448.34 -28.34 M420.85 -16.32 C426.37 -18.73, 431.88 -21.15, 448.34 -28.34" stroke="#364fc7" stroke-width="1" fill="none"></path></g><g stroke-opacity="0.8" fill-opacity="0.8" transform="translate(700.4050232306267 201.48312681098795) rotate(0 224.16849426076874 -14.169890739693216)"><path d="M419.56 -36.8 C430.73 -33.52, 441.91 -30.23, 448.34 -28.34 M419.56 -36.8 C425.33 -35.1, 431.11 -33.4, 448.34 -28.34" stroke="#364fc7" stroke-width="1" fill="none"></path></g></g><g stroke-linecap="round"><g transform="translate(305.59292287349035 504.3646114015836) rotate(5.286469055474201 -94.03627499352285 10.637717092885055)"><path d="M0 0 C-31.35 3.55, -156.73 17.73, -188.07 21.28 M0 0 C-31.35 3.55, -156.73 17.73, -188.07 21.28" stroke="#2b8a3e" stroke-width="1" fill="none"></path></g><g transform="translate(305.59292287349035 504.3646114015836) rotate(5.286469055474201 -94.03627499352285 10.637717092885055)"><path d="M-161.21 7.91 C-171.82 13.19, -182.43 18.47, -188.07 21.28 M-161.21 7.91 C-168.12 11.35, -175.02 14.78, -188.07 21.28" stroke="#2b8a3e" stroke-width="1" fill="none"></path></g><g transform="translate(305.59292287349035 504.3646114015836) rotate(5.286469055474201 -94.03627499352285 10.637717092885055)"><path d="M-158.91 28.3 C-170.43 25.53, -181.94 22.75, -188.07 21.28 M-158.91 28.3 C-166.4 26.5, -173.9 24.69, -188.07 21.28" stroke="#2b8a3e" stroke-width="1" fill="none"></path></g></g><g stroke-linecap="round"><g transform="translate(294.9054134470849 233.00970143048391) rotate(359.29251570421144 -93.42216121459501 -2.994111769845972)"><path d="M0 0 C-31.14 -1, -155.7 -4.99, -186.84 -5.99 M0 0 C-31.14 -1, -155.7 -4.99, -186.84 -5.99" stroke="#2b8a3e" stroke-width="1" fill="none"></path></g><g transform="translate(294.9054134470849 233.00970143048391) rotate(359.29251570421144 -93.42216121459501 -2.994111769845972)"><path d="M-158.34 -15.34 C-164.63 -13.28, -170.92 -11.21, -186.84 -5.99 M-158.34 -15.34 C-168 -12.17, -177.67 -9, -186.84 -5.99" stroke="#2b8a3e" stroke-width="1" fill="none"></path></g><g transform="translate(294.9054134470849 233.00970143048391) rotate(359.29251570421144 -93.42216121459501 -2.994111769845972)"><path d="M-159 5.17 C-165.14 2.71, -171.28 0.25, -186.84 -5.99 M-159 5.17 C-168.44 1.39, -177.88 -2.4, -186.84 -5.99" stroke="#2b8a3e" stroke-width="1" fill="none"></path></g></g><g stroke-linecap="round"><g stroke-opacity="0.8" fill-opacity="0.8" transform="translate(677.6620270232727 253.18657217048758) rotate(0 105.85747342491277 3.4222345623437604)"><path d="M0 0 C35.29 1.14, 176.43 5.7, 211.71 6.84 M0 0 C35.29 1.14, 176.43 5.7, 211.71 6.84" stroke="#2b8a3e" stroke-width="1" fill="none"></path></g><g stroke-opacity="0.8" fill-opacity="0.8" transform="translate(677.6620270232727 253.18657217048758) rotate(0 105.85747342491277 3.4222345623437604)"><path d="M183.21 16.19 C192.31 13.21, 201.4 10.22, 211.71 6.84 M183.21 16.19 C192.7 13.08, 202.2 9.96, 211.71 6.84" stroke="#2b8a3e" stroke-width="1" fill="none"></path></g><g stroke-opacity="0.8" fill-opacity="0.8" transform="translate(677.6620270232727 253.18657217048758) rotate(0 105.85747342491277 3.4222345623437604)"><path d="M183.87 -4.32 C192.76 -0.76, 201.64 2.81, 211.71 6.84 M183.87 -4.32 C193.15 -0.6, 202.42 3.12, 211.71 6.84" stroke="#2b8a3e" stroke-width="1" fill="none"></path></g></g><g stroke-linecap="round"><g stroke-opacity="0.8" fill-opacity="0.8" transform="translate(687.8264461397544 506.36388119716355) rotate(0 100.13836081374814 -10.580976649890431)"><path d="M0 0 C33.38 -3.53, 166.9 -17.63, 200.28 -21.16 M0 0 C33.38 -3.53, 166.9 -17.63, 200.28 -21.16" stroke="#2b8a3e" stroke-width="1" fill="none"></path></g><g stroke-opacity="0.8" fill-opacity="0.8" transform="translate(687.8264461397544 506.36388119716355) rotate(0 100.13836081374814 -10.580976649890431)"><path d="M173.32 -8 C181.94 -12.2, 190.55 -16.41, 200.28 -21.16 M173.32 -8 C179.58 -11.05, 185.83 -14.11, 200.28 -21.16" stroke="#2b8a3e" stroke-width="1" fill="none"></path></g><g stroke-opacity="0.8" fill-opacity="0.8" transform="translate(687.8264461397544 506.36388119716355) rotate(0 100.13836081374814 -10.580976649890431)"><path d="M171.16 -28.4 C180.47 -26.09, 189.78 -23.77, 200.28 -21.16 M171.16 -28.4 C177.92 -26.72, 184.68 -25.04, 200.28 -21.16" stroke="#2b8a3e" stroke-width="1" fill="none"></path></g></g><g stroke-linecap="round"><g transform="translate(313.96689429676815 421.3633241338456) rotate(0 173.7265164106327 -0.376305879447159)"><path d="M0.71 0.32 C58.77 0.21, 290.25 -0.83, 347.83 -1.08 M-0.38 -0.55 C57.63 -0.52, 289.06 -0.14, 347.22 -0.12" stroke="#495057" stroke-width="1" fill="none"></path></g></g><g stroke-opacity="0.8" fill-opacity="0.8" stroke-linecap="round" transform="translate(306.76242087417654 384.9219064025268) rotate(0 6.693463489329133 6.693463489329133)"><path d="M0 0 C3.01 0, 6.03 0, 13.39 0 M0 0 C3.1 0, 6.2 0, 13.39 0 M13.39 0 C13.39 4.92, 13.39 9.83, 13.39 13.39 M13.39 0 C13.39 4.74, 13.39 9.49, 13.39 13.39 M13.39 13.39 C10.6 13.39, 7.8 13.39, 0 13.39 M13.39 13.39 C8.99 13.39, 4.59 13.39, 0 13.39 M0 13.39 C0 9.19, 0 4.99, 0 0 M0 13.39 C0 10.36, 0 7.34, 0 0" stroke="#2b8a3e" stroke-width="1" fill="none"></path></g><g stroke-opacity="0.8" fill-opacity="0.8" stroke-linecap="round" transform="translate(306.2475390673063 325.91645133505654) rotate(0 6.693463489329133 6.693463489329133)"><path d="M0 0 C4.1 0, 8.21 0, 13.39 0 M0 0 C3.84 0, 7.68 0, 13.39 0 M13.39 0 C13.39 3.1, 13.39 6.2, 13.39 13.39 M13.39 0 C13.39 2.96, 13.39 5.92, 13.39 13.39 M13.39 13.39 C10.31 13.39, 7.23 13.39, 0 13.39 M13.39 13.39 C10 13.39, 6.61 13.39, 0 13.39 M0 13.39 C0 8.52, 0 3.66, 0 0 M0 13.39 C0 10.68, 0 7.98, 0 0" stroke="#2b8a3e" stroke-width="1" fill="none"></path></g><g stroke-opacity="0.8" fill-opacity="0.8" stroke-linecap="round" transform="translate(307.01986177761364 276.5392860560819) rotate(0 6.693463489329133 6.693463489329133)"><path d="M0 0 C5.03 0, 10.06 0, 13.39 0 M0 0 C5.32 0, 10.64 0, 13.39 0 M13.39 0 C13.39 2.74, 13.39 5.47, 13.39 13.39 M13.39 0 C13.39 3.6, 13.39 7.19, 13.39 13.39 M13.39 13.39 C9.56 13.39, 5.72 13.39, 0 13.39 M13.39 13.39 C8.4 13.39, 3.41 13.39, 0 13.39 M0 13.39 C0 10.14, 0 6.89, 0 0 M0 13.39 C0 8.27, 0 3.16, 0 0" stroke="#2b8a3e" stroke-width="1" fill="none"></path></g><g stroke-linecap="round"><g stroke-opacity="0.8" fill-opacity="0.8" transform="translate(292.0882893783403 465.29495645516397) rotate(0 209.5568953966888 1.029763613742972)"><path d="M0 0 C69.85 0.34, 349.26 1.72, 419.11 2.06 M0 0 C69.85 0.34, 349.26 1.72, 419.11 2.06" stroke="#495057" stroke-width="1" fill="none"></path></g></g><g stroke-opacity="0.8" fill-opacity="0.8" stroke-linecap="round" transform="translate(311.13891623258576 509.05991003923884) rotate(0 6.693463489329133 6.693463489329133)"><path d="M0 0 C3.47 0, 6.93 0, 13.39 0 M0 0 C4.97 0, 9.93 0, 13.39 0 M13.39 0 C13.39 3.04, 13.39 6.09, 13.39 13.39 M13.39 0 C13.39 4.47, 13.39 8.93, 13.39 13.39 M13.39 13.39 C10.03 13.39, 6.68 13.39, 0 13.39 M13.39 13.39 C10 13.39, 6.61 13.39, 0 13.39 M0 13.39 C0 9.27, 0 5.15, 0 0 M0 13.39 C0 9.93, 0 6.47, 0 0" stroke="#2b8a3e" stroke-width="1" fill="none"></path></g><g stroke-opacity="0.8" fill-opacity="0.8" transform="translate(326.0704886318582 192.40759881328393) rotate(0 21.779500430663234 8.80447889750215)"><text x="0" y="14.608957795004311" font-family="Cascadia, Segoe UI Emoji" font-size="14.828596037898365px" fill="#000000" text-anchor="start" style="white-space: pre;" direction="ltr">DO TO</text></g><g stroke-linecap="round"><g transform="translate(312.2000308872389 359.5493868471776) rotate(0 172.57256243739153 0.4561565658186737)"><path d="M-0.07 -0.72 C57.91 -0.68, 288.72 -0.12, 346.71 -0.1 M-1.57 1.51 C56.31 1.79, 287.33 1.56, 345.5 1.36" stroke="#495057" stroke-width="1" fill="none"></path></g></g><g stroke-linecap="round"><g transform="translate(313.95936942535695 309.50405898045324) rotate(0 174.07399518614977 0.391256093484742)"><path d="M0.77 -0.74 C58.35 -0.74, 288.57 -0.45, 346.23 -0.33 M-0.28 1.48 C57.59 1.69, 290.76 1.05, 348.43 1.02" stroke="#495057" stroke-width="1" fill="none"></path></g></g><g stroke-linecap="round"><g transform="translate(314.9306038473087 262.92369407193735) rotate(0 173.5652184735086 0.5486882728114892)"><path d="M0.07 0.77 C57.6 0.89, 288.42 0.14, 346.26 -0.17 M-1.35 0.12 C56.46 0.51, 290.53 1.35, 348.48 1.26" stroke="#495057" stroke-width="1" fill="none"></path></g></g><g stroke-opacity="0.3" fill-opacity="0.3" stroke-linecap="round" transform="translate(290.3928571428569 186.66666666666674) rotate(0 211.9768398889845 239.11111111111114)"><path d="M-0.18 -0.76 C144.98 -2.17, 289.2 -1.95, 424.43 -0.6 M0.03 -0.21 C144.21 -0.69, 289.35 -0.16, 424.32 -0.44 M424.25 0.71 C422.68 125.29, 422.77 252.76, 423.2 477.57 M423.78 0.4 C422.11 119.33, 422.57 238.33, 424.37 477.96 M424.37 477.62 C333.36 479.92, 244.26 480.26, 0.15 477.21 M423.51 477.9 C281.94 480.04, 138.6 479.85, -0.09 478.27 M-0.78 478.64 C1.42 366.27, 1.1 253.61, -0.02 -0.84 M0.31 478.54 C0.32 305.35, -0.06 133.3, -0.24 -0.04" stroke="#495057" stroke-width="1" fill="none"></path></g><g stroke-opacity="0.8" fill-opacity="0.8" transform="translate(584.8500847654602 219.5418700354105) rotate(0 47.72954349698534 8.80447889750215)"><text x="0" y="14.608957795004311" font-family="Cascadia, Segoe UI Emoji" font-size="14.828596037898365px" fill="#2b8a3e" text-anchor="start" style="white-space: pre;" direction="ltr">pencil icon</text></g><g stroke-opacity="0.8" fill-opacity="0.8" stroke-linecap="round" transform="translate(303.1716466374089 230.91559000861352) rotate(0 6.693463489329133 6.693463489329119)"><path d="M0 0 C3.64 0, 7.28 0, 13.39 0 M0 0 C2.84 0, 5.67 0, 13.39 0 M13.39 0 C13.39 2.82, 13.39 5.65, 13.39 13.39 M13.39 0 C13.39 3.5, 13.39 6.99, 13.39 13.39 M13.39 13.39 C8.74 13.39, 4.09 13.39, 0 13.39 M13.39 13.39 C10.3 13.39, 7.22 13.39, 0 13.39 M0 13.39 C0 9.37, 0 5.36, 0 0 M0 13.39 C0 8.55, 0 3.71, 0 0" stroke="#2b8a3e" stroke-width="1" fill="none"></path></g><g stroke-opacity="0.8" fill-opacity="0.8" transform="translate(327.1002522456016 473.79050626854325) rotate(0 38.92506459948322 8.80447889750215)"><text x="0" y="14.608957795004311" font-family="Cascadia, Segoe UI Emoji" font-size="14.828596037898372px" fill="#000000" text-anchor="start" style="white-space: pre;" direction="ltr">COMPLETED</text></g><g stroke-linecap="round"><g transform="translate(316.2850831540633 543.620765065433) rotate(0 173.46816898791002 0.04886002191329908)"><path d="M-1.15 -1.07 C56.32 -1.19, 288.04 -0.62, 346.01 -0.32 M0.44 0.98 C58.15 0.99, 290.56 1.41, 348.09 1.03" stroke="#495057" stroke-width="1" fill="none"></path></g></g><g stroke-linecap="round"><g transform="translate(691.503968253968 150.5677821013133) rotate(0 90.55555555555566 2.375661123577686)"><path d="M0 0 C30.19 0.79, 150.93 3.96, 181.11 4.75 M0 0 C30.19 0.79, 150.93 3.96, 181.11 4.75" stroke="#364fc7" stroke-width="1" fill="none"></path></g><g transform="translate(691.503968253968 150.5677821013133) rotate(0 90.55555555555566 2.375661123577686)"><path d="M152.66 14.27 C162.94 10.83, 173.22 7.39, 181.11 4.75 M152.66 14.27 C159.72 11.91, 166.79 9.54, 181.11 4.75" stroke="#364fc7" stroke-width="1" fill="none"></path></g><g transform="translate(691.503968253968 150.5677821013133) rotate(0 90.55555555555566 2.375661123577686)"><path d="M153.2 -6.25 C163.29 -2.27, 173.37 1.7, 181.11 4.75 M153.2 -6.25 C160.13 -3.51, 167.06 -0.78, 181.11 4.75" stroke="#364fc7" stroke-width="1" fill="none"></path></g></g><g transform="translate(552.2817460317457 144.1666666666667) rotate(0 61.00000000000006 9.5)"><text x="0" y="15" font-family="Cascadia, Segoe UI Emoji" font-size="16px" fill="#364fc7" text-anchor="start" style="white-space: pre;" direction="ltr">Sort list by:</text></g><g stroke-linecap="round" transform="translate(524.872849310782 709.8366958540571) rotate(0 35.164044320077835 18.137207628527165)"><path d="M0 0 C26.59 0, 53.18 0, 70.33 0 M0 0 C27.77 0, 55.54 0, 70.33 0 M70.33 0 C70.33 8, 70.33 16, 70.33 36.27 M70.33 0 C70.33 8.57, 70.33 17.13, 70.33 36.27 M70.33 36.27 C50.46 36.27, 30.58 36.27, 0 36.27 M70.33 36.27 C42.39 36.27, 14.46 36.27, 0 36.27 M0 36.27 C0 22.28, 0 8.29, 0 0 M0 36.27 C0 23.41, 0 10.55, 0 0" stroke="#e67700" stroke-width="1" fill="none"></path></g><g transform="translate(488.4740081570924 143.98257929335912) rotate(0 14.05526047971739 9.63789290037765)"><text x="14.05526047971739" y="15.275785800755287" font-family="Cascadia, Segoe UI Emoji" font-size="16.06315483396274px" fill="#2b8a3e" text-anchor="middle" style="white-space: pre;" direction="ltr">add</text></g><g stroke-linecap="round" transform="translate(468.7842485793666 139.16363284317086) rotate(0 34.360926796269666 12.850523867170168)"><path d="M0 0 C23.8 0, 47.6 0, 68.72 0 M0 0 C25.78 0, 51.56 0, 68.72 0 M68.72 0 C68.72 5.57, 68.72 11.14, 68.72 25.7 M68.72 0 C68.72 8.2, 68.72 16.4, 68.72 25.7 M68.72 25.7 C44.44 25.7, 20.16 25.7, 0 25.7 M68.72 25.7 C44.14 25.7, 19.56 25.7, 0 25.7 M0 25.7 C0 18.71, 0 11.71, 0 0 M0 25.7 C0 15.98, 0 6.27, 0 0" stroke="#2b8a3e" stroke-width="1" fill="none"></path></g><g transform="translate(60.17063492063477 229.27777777777786) rotate(0 18.99999999999997 9.499999999999986)"><text x="0" y="15" font-family="Cascadia, Segoe UI Emoji" font-size="16px" fill="#2b8a3e" text-anchor="start" style="white-space: pre;" direction="ltr">List</text></g><g stroke-linecap="round"><g transform="translate(223.1706349206347 156.00000000000003) rotate(0 -49 -0.5)"><path d="M0 0 C-16.33 -0.17, -81.67 -0.83, -98 -1 M0 0 C-16.33 -0.17, -81.67 -0.83, -98 -1" stroke="#2b8a3e" stroke-width="1" fill="none"></path></g><g transform="translate(223.1706349206347 156.00000000000003) rotate(0 -49 -0.5)"><path d="M-69.71 -10.97 C-80.31 -7.24, -90.91 -3.5, -98 -1 M-69.71 -10.97 C-77.66 -8.17, -85.62 -5.36, -98 -1" stroke="#2b8a3e" stroke-width="1" fill="none"></path></g><g transform="translate(223.1706349206347 156.00000000000003) rotate(0 -49 -0.5)"><path d="M-69.92 9.55 C-80.44 5.6, -90.96 1.64, -98 -1 M-69.92 9.55 C-77.82 6.58, -85.71 3.61, -98 -1" stroke="#2b8a3e" stroke-width="1" fill="none"></path></g></g><g transform="translate(58.17063492063471 146.50000000000003) rotate(0 23.5 9.5)"><text x="0" y="15" font-family="Cascadia, Segoe UI Emoji" font-size="16px" fill="#2b8a3e" text-anchor="start" style="white-space: pre;" direction="ltr">Input</text></g><g stroke-linecap="round" transform="translate(972.6706349206349 626.5) rotate(0 29.5 14)"><path d="M1.61 -1.05 C22.03 -0.9, 43.57 -0.52, 57.75 -1.51 M-0.03 0.3 C11.51 1.25, 24.47 -0.43, 59.35 -0.86 M59.42 -0.22 C60.83 11.68, 60.92 20.57, 59.45 27.53 M58.37 0.24 C59.4 10.32, 58.85 21.53, 59.12 27.65 M58.45 27.24 C43.25 29.3, 31.98 27.1, 0.23 28.32 M59.73 27.7 C37.86 27.71, 14.08 29.54, 0.05 28.83 M1.88 27.2 C-1.27 22.67, -1.71 17.54, -1.69 -0.69 M-0.15 27.43 C-0.64 18.68, -0.48 10.59, -0.64 0.2" stroke="#2b8a3e" stroke-width="1" fill="none"></path></g><g stroke-linecap="round" transform="translate(159.1706349206347 10.000000000000028) rotate(0 343 388.5)"><path d="M-0.49 -0.03 C226.12 -0.33, 450.73 -0.94, 686.59 0.47 M-0.25 -0.18 C200.34 -1.16, 400.71 -1.33, 686.01 -0.31 M686.42 -0.51 C684.86 268.75, 686.17 536.35, 686.46 777.14 M686.21 0.23 C687.97 175.42, 687.85 351.76, 685.7 777.24 M685.22 777.23 C527.18 774.91, 368.66 773.88, 0.71 777.64 M685.8 776.63 C537.35 777.04, 387.94 777.48, -0.2 776.98 M0.15 776.56 C-0.13 555.29, 0.33 333.3, -0.77 -0.1 M0.21 777.13 C0.06 554.84, 0.07 332.28, 0.3 -0.29" stroke="#000000" stroke-width="1" fill="none"></path></g><g stroke-linecap="round"><g transform="translate(161.3626013938342 30.85118129917936) rotate(0 341.9818865284602 0.8742565517044767)"><path d="M0.36 0.94 C114.48 1.19, 570.58 1.9, 684.87 1.72 M-0.9 0.39 C113.02 0.29, 569.3 -0.04, 683.76 0" stroke="#000000" stroke-width="1" fill="none"></path></g></g><g stroke-linecap="round" transform="translate(224.1706349206347 137.00000000000003) rotate(0 107.10622927593397 14.732083580704668)"><path d="M0 0 C76.57 0, 153.13 0, 214.21 0 M0 0 C51.68 0, 103.37 0, 214.21 0 M214.21 0 C214.21 6.81, 214.21 13.62, 214.21 29.46 M214.21 0 C214.21 7.42, 214.21 14.85, 214.21 29.46 M214.21 29.46 C154.57 29.46, 94.93 29.46, 0 29.46 M214.21 29.46 C158.34 29.46, 102.47 29.46, 0 29.46 M0 29.46 C0 22.61, 0 15.75, 0 0 M0 29.46 C0 19.03, 0 8.59, 0 0" stroke="#2b8a3e" stroke-width="1" fill="none"></path></g><g stroke-opacity="0.3" fill-opacity="0.3" transform="translate(242.48619829124118 143.0613101190593) rotate(0 45.60282412788979 9.354425462131246)"><text x="0" y="14.708850924262482" font-family="Cascadia, Segoe UI Emoji" font-size="15.590709103552069px" fill="#000000" text-anchor="start" style="white-space: pre;" direction="ltr">write here</text></g><g transform="translate(388.87993724621583 60.00000000000003) rotate(0 117.5 24)"><text x="117.5" y="39" font-family="Cascadia, Segoe UI Emoji" font-size="40.1860465116279px" fill="#343a40" text-anchor="middle" style="white-space: pre;" direction="ltr">To do list</text></g><g stroke-linecap="round" transform="translate(160.1706349206347 12.000000000000028) rotate(0 342 11)"><path d="M0 0 L684 0 L684 22 L0 22" stroke="none" stroke-width="0" fill="#868e96"></path><path d="M0 0 C164.69 0, 329.37 0, 684 0 M0 0 C233.5 0, 466.99 0, 684 0 M684 0 C684 8.68, 684 17.36, 684 22 M684 0 C684 7.78, 684 15.56, 684 22 M684 22 C487.03 22, 290.06 22, 0 22 M684 22 C479.56 22, 275.11 22, 0 22 M0 22 C0 15.16, 0 8.33, 0 0 M0 22 C0 14.82, 0 7.63, 0 0" stroke="#000000" stroke-width="1" fill="none"></path></g><g stroke-linecap="round" transform="translate(161.1706349206347 763.0000000000002) rotate(0 341.5 11.5)"><path d="M0 0 L683 0 L683 23 L0 23" stroke="none" stroke-width="0" fill="#868e96"></path><path d="M0 0 C189.71 0, 379.43 0, 683 0 M0 0 C252.44 0, 504.89 0, 683 0 M683 0 C683 5.63, 683 11.25, 683 23 M683 0 C683 7.31, 683 14.62, 683 23 M683 23 C434.89 23, 186.78 23, 0 23 M683 23 C482.15 23, 281.29 23, 0 23 M0 23 C0 16.86, 0 10.72, 0 0 M0 23 C0 16.95, 0 10.89, 0 0" stroke="#000000" stroke-width="1" fill="none"></path></g><g stroke-linecap="round"><g transform="translate(345.1706349206347 94.00000000000003) rotate(0 -110.5 1)"><path d="M0 0 C-36.83 0.33, -184.17 1.67, -221 2 M0 0 C-36.83 0.33, -184.17 1.67, -221 2" stroke="#000000" stroke-width="1" fill="none"></path></g><g transform="translate(345.1706349206347 94.00000000000003) rotate(0 -110.5 1)"><path d="M-192.9 -8.52 C-204.11 -4.32, -215.32 -0.13, -221 2 M-192.9 -8.52 C-199.06 -6.21, -205.21 -3.91, -221 2" stroke="#000000" stroke-width="1" fill="none"></path></g><g transform="translate(345.1706349206347 94.00000000000003) rotate(0 -110.5 1)"><path d="M-192.72 12.01 C-204 8.01, -215.28 4.02, -221 2 M-192.72 12.01 C-198.91 9.81, -205.1 7.62, -221 2" stroke="#000000" stroke-width="1" fill="none"></path></g></g><g transform="translate(59.17063492063471 87.50000000000003) rotate(0 23.5 9.5)"><text x="0" y="15" font-family="Cascadia, Segoe UI Emoji" font-size="16px" fill="#000000" text-anchor="start" style="white-space: pre;" direction="ltr">Title</text></g><g transform="translate(892.8373015873017 85.38888888888891) rotate(0 56.5 9.5)"><text x="0" y="15" font-family="Cascadia, Segoe UI Emoji" font-size="16px" fill="#2b8a3e" text-anchor="start" style="white-space: pre;" direction="ltr">`Add` button</text></g><g transform="translate(1048.670634920635 622) rotate(0 48.5 13)"><text x="0" y="18" font-family="Virgil, Segoe UI Emoji" font-size="20px" fill="#2b8a3e" text-anchor="start" style="white-space: pre;" direction="ltr">must have</text></g><g stroke-linecap="round" transform="translate(971.6706349206349 677.5) rotate(0 30 15)"><path d="M-0.47 1.45 C24.42 0.8, 45.06 0.35, 60.44 -0.22 M-0.35 -0.56 C16.11 0.61, 31.8 -0.45, 59.32 0.45 M60.32 1.49 C59.73 13.57, 61.27 22.73, 61.92 28.29 M60.83 -0.94 C60.91 5.91, 61.23 13.21, 59.45 30.23 M59.31 30.54 C46.14 29.87, 32.92 28.36, -1.42 29.68 M60.2 29.28 C44.99 30, 30.76 29.96, -0.37 30.98 M-0.12 31.49 C-1.57 22.83, 0.52 13.19, -0.13 1.11 M-0.58 29.73 C-0.51 24.72, 0.98 17.52, -0.48 -0.85" stroke="#e67700" stroke-width="1" fill="none"></path></g><g transform="translate(1050.670634920635 680.5) rotate(0 55.5 13)"><text x="0" y="18" font-family="Virgil, Segoe UI Emoji" font-size="20px" fill="#e67700" text-anchor="start" style="white-space: pre;" direction="ltr">should have</text></g><g stroke-linecap="round" transform="translate(971.6706349206349 738.5) rotate(0 31.5 13)"><path d="M0.07 0.75 C14.14 0.9, 31.58 0.89, 63.14 0.13 M0.88 -0.23 C15.38 1.44, 30.33 1.42, 63.57 0.2 M64.46 -1.41 C63.99 9.52, 61.42 22.26, 61.21 26.73 M62.36 0.6 C62.52 6.13, 63.45 11.66, 62.06 26.84 M61.61 26.41 C48.32 28.12, 36.2 25.72, 1.13 26.94 M63.16 26.7 C41.18 27.02, 20.07 26.89, 0.07 25.03 M0.57 27.99 C-1.42 17.54, 0.07 4.85, 0.49 -0.38 M0.77 25.25 C-0.3 17.45, -0.31 7.16, -0.22 -0.53" stroke="#364fc7" stroke-width="1" fill="none"></path></g><g transform="translate(1059.670634920635 741.5) rotate(0 50 13)"><text x="0" y="18" font-family="Virgil, Segoe UI Emoji" font-size="20px" fill="#364fc7" text-anchor="start" style="white-space: pre;" direction="ltr">could have</text></g><g stroke-opacity="0.8" fill-opacity="0.8" transform="translate(892.2222222222226 219.8055555555558) rotate(0 108 9.5)"><text x="0" y="15" font-family="Cascadia, Segoe UI Emoji" font-size="16px" fill="#2b8a3e" text-anchor="start" style="white-space: pre;" direction="ltr">`Edit` an existing item</text></g><g transform="translate(537.7093634052612 714.2905326627719) rotate(0 16.83333333333337 14.326241134751797)"><text x="16.83333333333336" y="11.326241134751799" font-family="Cascadia, Segoe UI Emoji" font-size="11.506231476810209px" fill="#e67700" text-anchor="middle" style="white-space: pre;" direction="ltr">clear</text><text x="16.83333333333336" y="25.652482269503597" font-family="Cascadia, Segoe UI Emoji" font-size="11.506231476810209px" fill="#e67700" text-anchor="middle" style="white-space: pre;" direction="ltr"> list</text></g><g stroke-linecap="round"><g stroke-opacity="0.8" fill-opacity="0.8" transform="translate(540 126.19444444444463) rotate(0 170.55555555555554 -14.444444444444443)"><path d="M0 0 C56.85 -4.81, 284.26 -24.07, 341.11 -28.89 M0 0 C56.85 -4.81, 284.26 -24.07, 341.11 -28.89" stroke="#2b8a3e" stroke-width="1" fill="none"></path></g><g stroke-opacity="0.8" fill-opacity="0.8" transform="translate(540 126.19444444444463) rotate(0 170.55555555555554 -14.444444444444443)"><path d="M313.89 -16.29 C323.49 -20.73, 333.1 -25.18, 341.11 -28.89 M313.89 -16.29 C321.09 -19.62, 328.3 -22.96, 341.11 -28.89" stroke="#2b8a3e" stroke-width="1" fill="none"></path></g><g stroke-opacity="0.8" fill-opacity="0.8" transform="translate(540 126.19444444444463) rotate(0 170.55555555555554 -14.444444444444443)"><path d="M312.16 -36.73 C322.37 -33.97, 332.59 -31.2, 341.11 -28.89 M312.16 -36.73 C319.82 -34.66, 327.48 -32.58, 341.11 -28.89" stroke="#2b8a3e" stroke-width="1" fill="none"></path></g></g><g stroke-opacity="0.8" fill-opacity="0.8" transform="translate(13.333333333333314 504.2500000000002) rotate(0 46.99999999999997 9.5)"><text x="0" y="15" font-family="Cascadia, Segoe UI Emoji" font-size="16px" fill="#2b8a3e" text-anchor="start" style="white-space: pre;" direction="ltr">Check mark</text></g><g stroke-opacity="0.8" fill-opacity="0.8" transform="translate(894.4444444444443 248.69444444444468) rotate(0 79.5 9.5)"><text x="0" y="15" font-family="Cascadia, Segoe UI Emoji" font-size="16px" fill="#2b8a3e" text-anchor="start" style="white-space: pre;" direction="ltr">`Remove` the item</text></g><g transform="translate(1163.4484126984128 144.7222222222222) rotate(0 79.5 28.5)"><text x="0" y="15" font-family="Cascadia, Segoe UI Emoji" font-size="16px" fill="#364fc7" text-anchor="start" style="white-space: pre;" direction="ltr">`Options button` </text><text x="0" y="34" font-family="Cascadia, Segoe UI Emoji" font-size="16px" fill="#364fc7" text-anchor="start" style="white-space: pre;" direction="ltr">*prioritize</text><text x="0" y="53" font-family="Cascadia, Segoe UI Emoji" font-size="16px" fill="#364fc7" text-anchor="start" style="white-space: pre;" direction="ltr">*Sublist</text></g><g stroke-opacity="0.8" fill-opacity="0.8" stroke-linecap="round" transform="translate(364.44444444444434 713.9722222222224) rotate(0 57.22222222222217 12.222222222222229)"><path d="M0 0 C23.86 0, 47.72 0, 114.44 0 M0 0 C32.07 0, 64.13 0, 114.44 0 M114.44 0 C114.44 6.62, 114.44 13.25, 114.44 24.44 M114.44 0 C114.44 7.04, 114.44 14.07, 114.44 24.44 M114.44 24.44 C70.36 24.44, 26.28 24.44, 0 24.44 M114.44 24.44 C79.49 24.44, 44.53 24.44, 0 24.44 M0 24.44 C0 18.82, 0 13.2, 0 0 M0 24.44 C0 15.59, 0 6.74, 0 0" stroke="#364fc7" stroke-width="1" fill="none"></path></g><g stroke-opacity="0.8" fill-opacity="0.8" transform="translate(368.55555555555543 715.5833333333335) rotate(0 47 9.5)"><text x="47" y="15" font-family="Cascadia, Segoe UI Emoji" font-size="16px" fill="#364fc7" text-anchor="middle" style="white-space: pre;" direction="ltr">share icon</text></g><g stroke-opacity="0.8" fill-opacity="0.8" transform="translate(10 715.3611111111113) rotate(0 47 28.5)"><text x="0" y="15" font-family="Cascadia, Segoe UI Emoji" font-size="16px" fill="#364fc7" text-anchor="start" style="white-space: pre;" direction="ltr">Share via:</text><text x="0" y="34" font-family="Cascadia, Segoe UI Emoji" font-size="16px" fill="#364fc7" text-anchor="start" style="white-space: pre;" direction="ltr">*link</text><text x="0" y="53" font-family="Cascadia, Segoe UI Emoji" font-size="16px" fill="#364fc7" text-anchor="start" style="white-space: pre;" direction="ltr">*</text></g><g stroke-linecap="round"><g transform="translate(350.0294005774782 718.773370011784) rotate(5.286469055474201 -116.69606724414501 12.96439305834275)"><path d="M0 0 C-38.9 4.32, -194.49 21.61, -233.39 25.93 M0 0 C-38.9 4.32, -194.49 21.61, -233.39 25.93" stroke="#364fc7" stroke-width="1" fill="none"></path></g><g transform="translate(350.0294005774782 718.773370011784) rotate(5.286469055474201 -116.69606724414501 12.96439305834275)"><path d="M-206.51 12.62 C-216.95 17.79, -227.4 22.96, -233.39 25.93 M-206.51 12.62 C-215.54 17.09, -224.58 21.57, -233.39 25.93" stroke="#364fc7" stroke-width="1" fill="none"></path></g><g transform="translate(350.0294005774782 718.773370011784) rotate(5.286469055474201 -116.69606724414501 12.96439305834275)"><path d="M-204.24 33.01 C-215.57 30.26, -226.9 27.51, -233.39 25.93 M-204.24 33.01 C-214.04 30.63, -223.84 28.25, -233.39 25.93" stroke="#364fc7" stroke-width="1" fill="none"></path></g></g><g stroke-opacity="0.8" fill-opacity="0.8" stroke-linecap="round" transform="translate(653.3333333333333 190.6388888888891) rotate(0 13.333333333333371 9.444444444444429)"><path d="M0 0 C7.03 0, 14.06 0, 26.67 0 M0 0 C6.37 0, 12.75 0, 26.67 0 M26.67 0 C26.67 5.38, 26.67 10.76, 26.67 18.89 M26.67 0 C26.67 7.13, 26.67 14.27, 26.67 18.89 M26.67 18.89 C16.77 18.89, 6.87 18.89, 0 18.89 M26.67 18.89 C16.29 18.89, 5.9 18.89, 0 18.89 M0 18.89 C0 12.77, 0 6.66, 0 0 M0 18.89 C0 14.53, 0 10.16, 0 0" stroke="#364fc7" stroke-width="1" fill="none"></path></g><g stroke-opacity="0.8" fill-opacity="0.8" transform="translate(650.4444444444441 181.69444444444463) rotate(0 17.5 12)"><text x="17.5" y="19" font-family="Cascadia, Segoe UI Emoji" font-size="20px" fill="#364fc7" text-anchor="middle" style="white-space: pre;" direction="ltr">...</text></g><g stroke-opacity="0.8" fill-opacity="0.8" transform="translate(582.8285960378973 514.4871040290939) rotate(0 43.55900086132647 8.804478897502179)"><text x="0" y="14.608957795004311" font-family="Cascadia, Segoe UI Emoji" font-size="14.828596037898365px" fill="#2b8a3e" text-anchor="start" style="white-space: pre;" direction="ltr">trash icon</text></g><g stroke-opacity="0.8" fill-opacity="0.8" transform="translate(580.0482342807925 495.84838262034657) rotate(0 47.72954349698534 8.804478897502179)"><text x="0" y="14.608957795004311" font-family="Cascadia, Segoe UI Emoji" font-size="14.828596037898365px" fill="#2b8a3e" text-anchor="start" style="white-space: pre;" direction="ltr">pencil icon</text></g><g stroke-opacity="0.8" fill-opacity="0.8" transform="translate(884.2222222222224 476.69444444444446) rotate(0 103 9.5)"><text x="0" y="15" font-family="Cascadia, Segoe UI Emoji" font-size="16px" fill="#2b8a3e" text-anchor="start" style="white-space: pre;" direction="ltr">`Edit` a complete item</text></g><g stroke-opacity="0.8" fill-opacity="0.8" transform="translate(906.4444444444441 520.0277777777779) rotate(0 79.5 9.5)"><text x="0" y="15" font-family="Cascadia, Segoe UI Emoji" font-size="16px" fill="#2b8a3e" text-anchor="start" style="white-space: pre;" direction="ltr">`Remove` the item</text></g><g stroke-linecap="round"><g stroke-opacity="0.8" fill-opacity="0.8" transform="translate(679.4795255552633 524.2641061870133) rotate(0 111.93584057689077 4.074104834818172)"><path d="M0 0 C37.31 1.36, 186.56 6.79, 223.87 8.15 M0 0 C37.31 1.36, 186.56 6.79, 223.87 8.15" stroke="#2b8a3e" stroke-width="1" fill="none"></path></g><g stroke-opacity="0.8" fill-opacity="0.8" transform="translate(679.4795255552633 524.2641061870133) rotate(0 111.93584057689077 4.074104834818172)"><path d="M195.33 17.38 C201.81 15.28, 208.29 13.19, 223.87 8.15 M195.33 17.38 C202.59 15.03, 209.85 12.68, 223.87 8.15" stroke="#2b8a3e" stroke-width="1" fill="none"></path></g><g stroke-opacity="0.8" fill-opacity="0.8" transform="translate(679.4795255552633 524.2641061870133) rotate(0 111.93584057689077 4.074104834818172)"><path d="M196.07 -3.13 C202.38 -0.57, 208.69 1.99, 223.87 8.15 M196.07 -3.13 C203.14 -0.26, 210.22 2.61, 223.87 8.15" stroke="#2b8a3e" stroke-width="1" fill="none"></path></g></g></svg>